# Blender v2.79 (sub 0) OBJ File: 'kartka.blend'
# www.blender.org
mtllib papper.mtl
o Plane
v -1.419553 0.000000 1.000000
v 1.419553 0.000000 1.000000
v -1.419553 0.000000 -1.000000
v 1.419553 0.000000 -1.000000
v -1.419553 0.000000 1.000000
v 1.419553 0.000000 1.000000
v -1.419553 0.000000 -1.000000
v 1.419553 0.000000 -1.000000
v -1.419553 0.015832 1.000000
v 1.419553 0.015832 1.000000
v -1.419553 0.015832 -1.000000
v 1.419553 0.015832 -1.000000
vt 0.000085 0.000085
vt 0.000085 0.999915
vt 0.999571 0.999915
vt 0.999571 -0.004228
vt 0.999571 0.999915
vt 0.000085 0.999915
vt 0.000085 0.999915
vt 0.999571 0.999915
vt 0.000085 0.000085
vt 0.999571 -0.004228
vt 0.000085 0.000085
vt 0.999571 -0.004228
vn 0.0000 -1.0000 0.0000
vn 0.0000 0.0000 -1.0000
vn 0.0000 0.0000 1.0000
vn 0.0000 1.0000 0.0000
vn 1.0000 0.0000 0.0000
vn -1.0000 0.0000 0.0000
usemtl Material.001
s off
f 1/1/1 3/2/1 4/3/1 2/4/1
f 8/5/2 7/6/2 11/7/2 12/8/2
f 3/2/3 1/1/3 5/9/3 7/6/3
f 4/3/3 3/2/3 7/6/3 8/5/3
f 1/1/3 2/4/3 6/10/3 5/9/3
f 2/4/3 4/3/3 8/5/3 6/10/3
f 9/11/4 10/12/4 12/8/4 11/7/4
f 5/9/3 6/10/3 10/12/3 9/11/3
f 6/10/5 8/5/5 12/8/5 10/12/5
f 7/6/6 5/9/6 9/11/6 11/7/6
