# Blender v2.79 (sub 0) OBJ File: 'klawisze.blend'
# www.blender.org
mtllib white2.mtl
o Cube.007_Cube.002
v -0.020000 -0.002852 0.195204
v -0.020000 0.024306 0.195204
v -0.020000 -0.002852 0.000158
v -0.020000 0.024306 0.000158
v 0.020000 -0.002852 0.195204
v 0.020000 0.024306 0.195204
v 0.020000 -0.002852 0.000158
v 0.020000 0.024306 0.000158
v -0.020000 0.016496 0.195204
v 0.020000 0.016496 0.195204
v 0.020000 0.024306 0.198212
v -0.020000 0.024306 0.198212
v -0.020000 0.016496 0.198212
v 0.020000 0.016496 0.198212
vt 0.495441 0.984811
vt 0.495441 0.000000
vt 0.663627 0.000000
vt 0.663627 0.984811
vt 0.543804 0.984811
vt 0.831814 0.201965
vt 0.831814 0.000000
vt 1.000000 0.000000
vt 1.000000 0.201965
vt 0.663627 1.000000
vt 0.663627 0.015189
vt 0.711991 0.015189
vt 0.831814 0.015189
vt 0.831814 1.000000
vt 0.663627 0.000000
vt 0.711991 0.000000
vt 0.247720 0.984810
vt 0.247720 0.000000
vt 0.495441 0.000000
vt 0.495441 0.984810
vt 0.247720 0.015189
vt 0.247720 1.000000
vt 0.000000 1.000000
vt 0.000000 0.015189
vt 0.000000 0.000000
vt 0.247720 0.000000
vt 0.880177 0.605896
vt 0.831814 0.605896
vt 0.831814 0.403931
vt 0.880177 0.403931
vt 0.898808 0.403931
vt 0.898808 0.605896
vt 0.880177 0.605896
vt 0.880177 0.403931
vt 0.951636 0.201965
vt 0.951636 0.403931
vt 0.831814 0.403931
vt 0.831814 0.201965
vt 0.543804 1.000000
vt 0.495441 1.000000
vn -1.0000 0.0000 0.0000
vn 0.0000 0.0000 -1.0000
vn 1.0000 0.0000 0.0000
vn 0.0000 -1.0000 0.0000
vn 0.0000 1.0000 0.0000
vn 0.0000 0.0000 1.0000
usemtl Material.009
s off
f 2/1/1 4/2/1 3/3/1 1/4/1 9/5/1
f 4/6/2 8/7/2 7/8/2 3/9/2
f 8/10/3 6/11/3 10/12/3 5/13/3 7/14/3
f 10/12/3 6/11/3 11/15/3 14/16/3
f 1/17/4 3/18/4 7/19/4 5/20/4
f 6/21/5 8/22/5 4/23/5 2/24/5
f 6/21/5 2/24/5 12/25/5 11/26/5
f 12/27/6 13/28/6 14/29/6 11/30/6
f 9/31/4 10/32/4 14/33/4 13/34/4
f 10/35/6 9/36/6 1/37/6 5/38/6
f 2/1/1 9/5/1 13/39/1 12/40/1
