# Blender v2.79 (sub 0) OBJ File: ''
# www.blender.org
mtllib lens.mtl
o Circle
v 0.000000 0.022478 -0.662988
v 0.000000 -0.032297 -0.866236
v 0.000000 -0.096908 -0.937607
v 0.040703 0.068685 -0.178332
v 0.079842 0.059077 -0.349811
v 0.115913 0.043475 -0.507846
v 0.147529 0.022478 -0.646366
v 0.173476 -0.003107 -0.760046
v 0.192756 -0.032297 -0.844518
v 0.204628 -0.063970 -0.896535
v 0.208637 -0.096908 -0.914099
v 0.079365 0.068685 -0.164803
v 0.155681 0.059077 -0.323274
v 0.226013 0.043475 -0.469321
v 0.287660 0.022478 -0.597332
v 0.338252 -0.003107 -0.702388
v 0.375846 -0.032297 -0.780452
v 0.398996 -0.063970 -0.828523
v 0.406813 -0.096908 -0.844755
v 0.114048 0.068685 -0.143011
v 0.223713 0.059077 -0.280526
v 0.324780 0.043475 -0.407261
v 0.413367 0.022478 -0.518345
v 0.486068 -0.003107 -0.609509
v 0.540089 -0.032297 -0.677250
v 0.573356 -0.063970 -0.718965
v 0.584589 -0.096908 -0.733051
v 0.143011 0.068685 -0.114047
v 0.280527 0.059077 -0.223712
v 0.407261 0.043475 -0.324780
v 0.518345 0.022478 -0.413366
v 0.609510 -0.003107 -0.486067
v 0.677251 -0.032297 -0.540089
v 0.718966 -0.063970 -0.573356
v 0.733051 -0.096908 -0.584588
v 0.164804 0.068685 -0.079365
v 0.323274 0.059077 -0.155680
v 0.469321 0.043475 -0.226013
v 0.597332 0.022478 -0.287660
v 0.702388 -0.003107 -0.338252
v 0.780452 -0.032297 -0.375845
v 0.828523 -0.063970 -0.398996
v 0.844755 -0.096908 -0.406812
v 0.178332 0.068685 -0.040703
v 0.349811 0.059077 -0.079842
v 0.507847 0.043475 -0.115912
v 0.646366 0.022478 -0.147529
v 0.760046 -0.003107 -0.173475
v 0.844518 -0.032297 -0.192755
v 0.896535 -0.063970 -0.204628
v 0.914099 -0.096908 -0.208637
v 0.182918 0.068685 0.000000
v 0.358807 0.059077 0.000000
v 0.520907 0.043475 0.000000
v 0.662989 0.022478 0.000000
v 0.779592 -0.003107 0.000000
v 0.866236 -0.032297 0.000000
v 0.919591 -0.063970 0.000000
v 0.937607 -0.096908 0.000000
v 0.178332 0.068685 0.040703
v 0.349811 0.059077 0.079842
v 0.507847 0.043475 0.115913
v 0.646366 0.022478 0.147529
v 0.760046 -0.003107 0.173476
v 0.844518 -0.032297 0.192756
v 0.896535 -0.063970 0.204629
v 0.914099 -0.096908 0.208637
v 0.164804 0.068685 0.079366
v 0.323274 0.059077 0.155681
v 0.469321 0.043475 0.226013
v 0.597332 0.022478 0.287660
v 0.702388 -0.003107 0.338253
v 0.780452 -0.032297 0.375846
v 0.828523 -0.063970 0.398996
v 0.844755 -0.096908 0.406813
v 0.143011 0.068685 0.114048
v 0.280527 0.059077 0.223713
v 0.407261 0.043475 0.324780
v 0.518345 0.022478 0.413367
v 0.609510 -0.003107 0.486068
v 0.677251 -0.032297 0.540090
v 0.718965 -0.063970 0.573356
v 0.733051 -0.096908 0.584589
v 0.114048 0.068685 0.143012
v 0.223713 0.059077 0.280527
v 0.324780 0.043475 0.407262
v 0.413367 0.022478 0.518346
v 0.486068 -0.003107 0.609510
v 0.540089 -0.032297 0.677251
v 0.573356 -0.063970 0.718966
v 0.584588 -0.096908 0.733051
v 0.079365 0.068685 0.164804
v 0.155681 0.059077 0.323274
v 0.226013 0.043475 0.469321
v 0.287660 0.022478 0.597332
v 0.338252 -0.003107 0.702388
v 0.375846 -0.032297 0.780452
v 0.398996 -0.063970 0.828523
v 0.406812 -0.096908 0.844755
v 0.040703 0.068685 0.178333
v 0.079842 0.059077 0.349811
v 0.115913 0.043475 0.507847
v 0.147529 0.022478 0.646366
v 0.173476 -0.003107 0.760046
v 0.192756 -0.032297 0.844518
v 0.204628 -0.063970 0.896535
v 0.208637 -0.096908 0.914099
v -0.000000 0.068685 0.182919
v 0.000000 0.059077 0.358807
v -0.000000 0.043475 0.520907
v 0.000000 0.022478 0.662989
v 0.000000 -0.003107 0.779592
v 0.000000 -0.032297 0.866236
v 0.000000 -0.063970 0.919591
v -0.000000 -0.096908 0.937607
v -0.040703 0.068685 0.178333
v -0.079842 0.059077 0.349811
v -0.115913 0.043475 0.507847
v -0.147529 0.022478 0.646366
v -0.173475 -0.003107 0.760046
v -0.192756 -0.032297 0.844518
v -0.204628 -0.063970 0.896535
v -0.208637 -0.096908 0.914099
v -0.079365 0.068685 0.164804
v -0.155680 0.059077 0.323274
v -0.226013 0.043475 0.469321
v -0.287660 0.022478 0.597332
v -0.338252 -0.003107 0.702388
v -0.375846 -0.032297 0.780452
v -0.398995 -0.063970 0.828523
v -0.406812 -0.096908 0.844755
v -0.114048 0.068685 0.143012
v -0.223712 0.059077 0.280527
v -0.324780 0.043475 0.407262
v -0.413366 0.022478 0.518346
v -0.486068 -0.003107 0.609510
v -0.540089 -0.032297 0.677251
v -0.573355 -0.063970 0.718966
v -0.584588 -0.096908 0.733051
v -0.000000 0.071929 0.000001
v -0.143011 0.068685 0.114048
v -0.280527 0.059077 0.223713
v -0.407261 0.043475 0.324780
v -0.518345 0.022478 0.413367
v -0.609509 -0.003107 0.486068
v -0.677251 -0.032297 0.540090
v -0.718965 -0.063970 0.573356
v -0.733051 -0.096908 0.584588
v -0.164804 0.068685 0.079366
v -0.323274 0.059077 0.155681
v -0.469321 0.043475 0.226013
v -0.597332 0.022478 0.287660
v -0.702388 -0.003107 0.338253
v -0.780452 -0.032297 0.375846
v -0.828523 -0.063970 0.398996
v -0.844755 -0.096908 0.406813
v -0.178332 0.068685 0.040704
v -0.349811 0.059077 0.079842
v -0.507847 0.043475 0.115913
v -0.646366 0.022478 0.147529
v -0.760046 -0.003107 0.173476
v -0.844518 -0.032297 0.192756
v -0.896535 -0.063970 0.204629
v -0.914099 -0.096908 0.208637
v -0.182918 0.068685 0.000000
v -0.358807 0.059077 0.000000
v -0.520907 0.043475 0.000000
v -0.662988 0.022478 0.000000
v -0.779592 -0.003107 0.000000
v -0.866236 -0.032297 0.000000
v -0.919591 -0.063970 0.000000
v -0.937607 -0.096908 0.000000
v -0.178332 0.068685 -0.040703
v -0.349811 0.059077 -0.079842
v -0.507847 0.043475 -0.115912
v -0.646366 0.022478 -0.147528
v -0.760046 -0.003107 -0.173475
v -0.844518 -0.032297 -0.192755
v -0.896535 -0.063970 -0.204628
v -0.914099 -0.096908 -0.208637
v -0.164804 0.068685 -0.079365
v -0.323274 0.059077 -0.155680
v -0.469321 0.043475 -0.226013
v -0.597332 0.022478 -0.287660
v -0.702388 -0.003107 -0.338252
v -0.780452 -0.032297 -0.375845
v -0.828523 -0.063970 -0.398995
v -0.844754 -0.096908 -0.406812
v -0.143011 0.068685 -0.114047
v -0.280527 0.059077 -0.223712
v -0.407261 0.043475 -0.324780
v -0.518345 0.022478 -0.413366
v -0.609510 -0.003107 -0.486067
v -0.677251 -0.032297 -0.540089
v -0.718965 -0.063970 -0.573355
v -0.733050 -0.096908 -0.584588
v -0.114048 0.068685 -0.143011
v -0.223713 0.059077 -0.280526
v -0.324780 0.043475 -0.407261
v -0.413367 0.022478 -0.518345
v -0.486068 -0.003107 -0.609509
v -0.540089 -0.032297 -0.677250
v -0.573356 -0.063970 -0.718965
v -0.584588 -0.096908 -0.733050
v -0.079365 0.068685 -0.164803
v -0.155681 0.059077 -0.323274
v -0.226013 0.043475 -0.469321
v -0.287660 0.022478 -0.597332
v -0.338252 -0.003107 -0.702388
v -0.375846 -0.032297 -0.780451
v -0.398996 -0.063970 -0.828523
v -0.406812 -0.096908 -0.844754
v -0.040703 0.068685 -0.178332
v -0.079842 0.059077 -0.349811
v -0.115913 0.043475 -0.507846
v -0.147529 0.022478 -0.646366
v -0.173476 -0.003107 -0.760046
v -0.192756 -0.032297 -0.844517
v -0.204628 -0.063970 -0.896535
v -0.208637 -0.096908 -0.914099
v -0.000000 0.068685 -0.182918
v -0.000000 0.059077 -0.358807
v 0.000000 0.043475 -0.520907
v -0.000000 -0.003107 -0.779592
v -0.000000 -0.063970 -0.919591
vn 0.0061 0.9985 -0.0545
vn 0.0108 0.9953 -0.0958
vn 0.0165 0.9891 -0.1462
vn 0.0241 0.9765 -0.2143
vn 0.0359 0.9471 -0.3191
vn 0.0574 0.8585 -0.5096
vn 0.0984 0.4775 -0.8731
vn 0.0020 0.9998 -0.0177
vn 0.2902 0.4775 -0.8293
vn 0.0059 0.9998 -0.0168
vn 0.0181 0.9985 -0.0518
vn 0.0318 0.9953 -0.0910
vn 0.0486 0.9891 -0.1388
vn 0.0712 0.9765 -0.2035
vn 0.1060 0.9471 -0.3031
vn 0.1694 0.8585 -0.4841
vn 0.1147 0.9765 -0.1826
vn 0.1708 0.9471 -0.2719
vn 0.2728 0.8585 -0.4342
vn 0.4674 0.4775 -0.7439
vn 0.0095 0.9998 -0.0151
vn 0.0292 0.9985 -0.0465
vn 0.0513 0.9953 -0.0816
vn 0.0783 0.9891 -0.1246
vn 0.0126 0.9998 -0.0126
vn 0.0388 0.9985 -0.0388
vn 0.0682 0.9953 -0.0682
vn 0.1040 0.9891 -0.1040
vn 0.1525 0.9765 -0.1525
vn 0.2270 0.9471 -0.2270
vn 0.3626 0.8585 -0.3626
vn 0.6213 0.4775 -0.6213
vn 0.1826 0.9765 -0.1147
vn 0.2719 0.9471 -0.1708
vn 0.4342 0.8585 -0.2728
vn 0.7439 0.4775 -0.4674
vn 0.0151 0.9998 -0.0095
vn 0.0465 0.9985 -0.0292
vn 0.0816 0.9953 -0.0513
vn 0.1246 0.9891 -0.0783
vn 0.0518 0.9985 -0.0181
vn 0.0910 0.9953 -0.0318
vn 0.1388 0.9891 -0.0486
vn 0.2035 0.9765 -0.0712
vn 0.3031 0.9471 -0.1060
vn 0.4841 0.8585 -0.1694
vn 0.8293 0.4775 -0.2902
vn 0.0168 0.9998 -0.0059
vn 0.3191 0.9471 -0.0359
vn 0.5096 0.8585 -0.0574
vn 0.8731 0.4775 -0.0984
vn 0.0177 0.9998 -0.0020
vn 0.0545 0.9985 -0.0061
vn 0.0958 0.9953 -0.0108
vn 0.1462 0.9891 -0.0165
vn 0.2143 0.9765 -0.0241
vn 0.0545 0.9985 0.0061
vn 0.0958 0.9953 0.0108
vn 0.1462 0.9891 0.0165
vn 0.2143 0.9765 0.0241
vn 0.3191 0.9471 0.0359
vn 0.5096 0.8585 0.0574
vn 0.8731 0.4775 0.0984
vn 0.0177 0.9998 0.0020
vn 0.3031 0.9471 0.1060
vn 0.4841 0.8585 0.1694
vn 0.8293 0.4775 0.2902
vn 0.0168 0.9998 0.0059
vn 0.0518 0.9985 0.0181
vn 0.0910 0.9953 0.0318
vn 0.1388 0.9891 0.0486
vn 0.2035 0.9765 0.0712
vn 0.0816 0.9953 0.0513
vn 0.1246 0.9891 0.0783
vn 0.1826 0.9765 0.1147
vn 0.2719 0.9471 0.1708
vn 0.4342 0.8585 0.2728
vn 0.7439 0.4775 0.4674
vn 0.0151 0.9998 0.0095
vn 0.0465 0.9985 0.0292
vn 0.3626 0.8585 0.3626
vn 0.6213 0.4775 0.6213
vn 0.0126 0.9998 0.0126
vn 0.0388 0.9985 0.0388
vn 0.0682 0.9953 0.0682
vn 0.1040 0.9891 0.1040
vn 0.1525 0.9765 0.1525
vn 0.2270 0.9471 0.2270
vn 0.0783 0.9891 0.1246
vn 0.1147 0.9765 0.1826
vn 0.1708 0.9471 0.2719
vn 0.2728 0.8585 0.4342
vn 0.4674 0.4775 0.7439
vn 0.0095 0.9998 0.0151
vn 0.0292 0.9985 0.0465
vn 0.0513 0.9953 0.0816
vn 0.2902 0.4775 0.8293
vn 0.0059 0.9998 0.0168
vn 0.0181 0.9985 0.0518
vn 0.0318 0.9953 0.0910
vn 0.0486 0.9891 0.1388
vn 0.0712 0.9765 0.2035
vn 0.1060 0.9471 0.3031
vn 0.1694 0.8585 0.4841
vn 0.0165 0.9891 0.1462
vn 0.0241 0.9765 0.2143
vn 0.0359 0.9471 0.3191
vn 0.0574 0.8585 0.5096
vn 0.0984 0.4775 0.8731
vn 0.0020 0.9998 0.0177
vn 0.0061 0.9985 0.0545
vn 0.0108 0.9953 0.0958
vn -0.0984 0.4775 0.8731
vn -0.0020 0.9998 0.0177
vn -0.0061 0.9985 0.0545
vn -0.0108 0.9953 0.0958
vn -0.0165 0.9891 0.1462
vn -0.0241 0.9765 0.2143
vn -0.0359 0.9471 0.3191
vn -0.0574 0.8585 0.5096
vn -0.0712 0.9765 0.2035
vn -0.1060 0.9471 0.3031
vn -0.1694 0.8585 0.4841
vn -0.2902 0.4775 0.8293
vn -0.0059 0.9998 0.0168
vn -0.0181 0.9985 0.0518
vn -0.0318 0.9953 0.0910
vn -0.0486 0.9891 0.1388
vn -0.0095 0.9998 0.0151
vn -0.0292 0.9985 0.0465
vn -0.0513 0.9953 0.0816
vn -0.0783 0.9891 0.1246
vn -0.1147 0.9765 0.1826
vn -0.1708 0.9471 0.2719
vn -0.2728 0.8585 0.4342
vn -0.4674 0.4775 0.7439
vn -0.1525 0.9765 0.1525
vn -0.2270 0.9471 0.2270
vn -0.3626 0.8585 0.3626
vn -0.6213 0.4775 0.6213
vn -0.0126 0.9998 0.0126
vn -0.0388 0.9985 0.0388
vn -0.0682 0.9953 0.0682
vn -0.1040 0.9891 0.1040
vn -0.0465 0.9985 0.0292
vn -0.0816 0.9953 0.0513
vn -0.1246 0.9891 0.0783
vn -0.1826 0.9765 0.1147
vn -0.2719 0.9471 0.1708
vn -0.4342 0.8585 0.2728
vn -0.7439 0.4775 0.4674
vn -0.0151 0.9998 0.0095
vn -0.3031 0.9471 0.1060
vn -0.4841 0.8585 0.1694
vn -0.8293 0.4775 0.2902
vn -0.0168 0.9998 0.0059
vn -0.0518 0.9985 0.0181
vn -0.0910 0.9953 0.0318
vn -0.1388 0.9891 0.0486
vn -0.2035 0.9765 0.0712
vn -0.0958 0.9953 0.0108
vn -0.1462 0.9891 0.0165
vn -0.2143 0.9765 0.0241
vn -0.3191 0.9471 0.0359
vn -0.5096 0.8585 0.0574
vn -0.8731 0.4775 0.0984
vn -0.0177 0.9998 0.0020
vn -0.0545 0.9985 0.0061
vn -0.5096 0.8585 -0.0574
vn -0.8731 0.4775 -0.0984
vn -0.0177 0.9998 -0.0020
vn -0.0545 0.9985 -0.0061
vn -0.0958 0.9953 -0.0108
vn -0.1462 0.9891 -0.0165
vn -0.2143 0.9765 -0.0241
vn -0.3191 0.9471 -0.0359
vn -0.0910 0.9953 -0.0318
vn -0.1388 0.9891 -0.0486
vn -0.2035 0.9765 -0.0712
vn -0.3031 0.9471 -0.1060
vn -0.4841 0.8585 -0.1694
vn -0.8293 0.4775 -0.2902
vn -0.0168 0.9998 -0.0059
vn -0.0518 0.9985 -0.0181
vn -0.4342 0.8585 -0.2728
vn -0.7439 0.4775 -0.4675
vn -0.0151 0.9998 -0.0095
vn -0.0465 0.9985 -0.0292
vn -0.0816 0.9953 -0.0513
vn -0.1246 0.9891 -0.0783
vn -0.1826 0.9765 -0.1147
vn -0.2719 0.9471 -0.1708
vn -0.1040 0.9891 -0.1040
vn -0.1525 0.9765 -0.1525
vn -0.2270 0.9471 -0.2270
vn -0.3626 0.8585 -0.3626
vn -0.6213 0.4775 -0.6213
vn -0.0126 0.9998 -0.0126
vn -0.0388 0.9985 -0.0388
vn -0.0682 0.9953 -0.0682
vn -0.4675 0.4775 -0.7439
vn -0.0095 0.9998 -0.0151
vn -0.0292 0.9985 -0.0465
vn -0.0513 0.9953 -0.0816
vn -0.0783 0.9891 -0.1246
vn -0.1147 0.9765 -0.1826
vn -0.1708 0.9471 -0.2719
vn -0.2728 0.8585 -0.4342
vn -0.0486 0.9891 -0.1388
vn -0.0712 0.9765 -0.2035
vn -0.1060 0.9471 -0.3031
vn -0.1694 0.8585 -0.4841
vn -0.2902 0.4775 -0.8293
vn -0.0059 0.9998 -0.0168
vn -0.0181 0.9985 -0.0518
vn -0.0318 0.9953 -0.0910
vn -0.0984 0.4775 -0.8731
vn -0.0020 0.9998 -0.0177
vn 0.0000 -1.0000 -0.0000
vn -0.0061 0.9985 -0.0545
vn -0.0108 0.9953 -0.0958
vn -0.0165 0.9891 -0.1462
vn -0.0241 0.9765 -0.2143
vn -0.0359 0.9471 -0.3191
vn -0.0574 0.8585 -0.5096
usemtl None
s off
f 222//1 221//1 4//1 5//1
f 223//2 222//2 5//2 6//2
f 1//3 223//3 6//3 7//3
f 224//4 1//4 7//4 8//4
f 2//5 224//5 8//5 9//5
f 225//6 2//6 9//6 10//6
f 3//7 225//7 10//7 11//7
f 221//8 140//8 4//8
f 11//9 10//9 18//9 19//9
f 4//10 140//10 12//10
f 5//11 4//11 12//11 13//11
f 6//12 5//12 13//12 14//12
f 7//13 6//13 14//13 15//13
f 8//14 7//14 15//14 16//14
f 9//15 8//15 16//15 17//15
f 10//16 9//16 17//16 18//16
f 16//17 15//17 23//17 24//17
f 17//18 16//18 24//18 25//18
f 18//19 17//19 25//19 26//19
f 19//20 18//20 26//20 27//20
f 12//21 140//21 20//21
f 13//22 12//22 20//22 21//22
f 14//23 13//23 21//23 22//23
f 15//24 14//24 22//24 23//24
f 20//25 140//25 28//25
f 21//26 20//26 28//26 29//26
f 22//27 21//27 29//27 30//27
f 23//28 22//28 30//28 31//28
f 24//29 23//29 31//29 32//29
f 25//30 24//30 32//30 33//30
f 26//31 25//31 33//31 34//31
f 27//32 26//32 34//32 35//32
f 32//33 31//33 39//33 40//33
f 33//34 32//34 40//34 41//34
f 34//35 33//35 41//35 42//35
f 35//36 34//36 42//36 43//36
f 28//37 140//37 36//37
f 29//38 28//38 36//38 37//38
f 30//39 29//39 37//39 38//39
f 31//40 30//40 38//40 39//40
f 37//41 36//41 44//41 45//41
f 38//42 37//42 45//42 46//42
f 39//43 38//43 46//43 47//43
f 40//44 39//44 47//44 48//44
f 41//45 40//45 48//45 49//45
f 42//46 41//46 49//46 50//46
f 43//47 42//47 50//47 51//47
f 36//48 140//48 44//48
f 49//49 48//49 56//49 57//49
f 50//50 49//50 57//50 58//50
f 51//51 50//51 58//51 59//51
f 44//52 140//52 52//52
f 45//53 44//53 52//53 53//53
f 46//54 45//54 53//54 54//54
f 47//55 46//55 54//55 55//55
f 48//56 47//56 55//56 56//56
f 53//57 52//57 60//57 61//57
f 54//58 53//58 61//58 62//58
f 55//59 54//59 62//59 63//59
f 56//60 55//60 63//60 64//60
f 57//61 56//61 64//61 65//61
f 58//62 57//62 65//62 66//62
f 59//63 58//63 66//63 67//63
f 52//64 140//64 60//64
f 65//65 64//65 72//65 73//65
f 66//66 65//66 73//66 74//66
f 67//67 66//67 74//67 75//67
f 60//68 140//68 68//68
f 61//69 60//69 68//69 69//69
f 62//70 61//70 69//70 70//70
f 63//71 62//71 70//71 71//71
f 64//72 63//72 71//72 72//72
f 70//73 69//73 77//73 78//73
f 71//74 70//74 78//74 79//74
f 72//75 71//75 79//75 80//75
f 73//76 72//76 80//76 81//76
f 74//77 73//77 81//77 82//77
f 75//78 74//78 82//78 83//78
f 68//79 140//79 76//79
f 69//80 68//80 76//80 77//80
f 82//81 81//81 89//81 90//81
f 83//82 82//82 90//82 91//82
f 76//83 140//83 84//83
f 77//84 76//84 84//84 85//84
f 78//85 77//85 85//85 86//85
f 79//86 78//86 86//86 87//86
f 80//87 79//87 87//87 88//87
f 81//88 80//88 88//88 89//88
f 87//89 86//89 94//89 95//89
f 88//90 87//90 95//90 96//90
f 89//91 88//91 96//91 97//91
f 90//92 89//92 97//92 98//92
f 91//93 90//93 98//93 99//93
f 84//94 140//94 92//94
f 85//95 84//95 92//95 93//95
f 86//96 85//96 93//96 94//96
f 99//97 98//97 106//97 107//97
f 92//98 140//98 100//98
f 93//99 92//99 100//99 101//99
f 94//100 93//100 101//100 102//100
f 95//101 94//101 102//101 103//101
f 96//102 95//102 103//102 104//102
f 97//103 96//103 104//103 105//103
f 98//104 97//104 105//104 106//104
f 103//105 102//105 110//105 111//105
f 104//106 103//106 111//106 112//106
f 105//107 104//107 112//107 113//107
f 106//108 105//108 113//108 114//108
f 107//109 106//109 114//109 115//109
f 100//110 140//110 108//110
f 101//111 100//111 108//111 109//111
f 102//112 101//112 109//112 110//112
f 115//113 114//113 122//113 123//113
f 108//114 140//114 116//114
f 109//115 108//115 116//115 117//115
f 110//116 109//116 117//116 118//116
f 111//117 110//117 118//117 119//117
f 112//118 111//118 119//118 120//118
f 113//119 112//119 120//119 121//119
f 114//120 113//120 121//120 122//120
f 120//121 119//121 127//121 128//121
f 121//122 120//122 128//122 129//122
f 122//123 121//123 129//123 130//123
f 123//124 122//124 130//124 131//124
f 116//125 140//125 124//125
f 117//126 116//126 124//126 125//126
f 118//127 117//127 125//127 126//127
f 119//128 118//128 126//128 127//128
f 124//129 140//129 132//129
f 125//130 124//130 132//130 133//130
f 126//131 125//131 133//131 134//131
f 127//132 126//132 134//132 135//132
f 128//133 127//133 135//133 136//133
f 129//134 128//134 136//134 137//134
f 130//135 129//135 137//135 138//135
f 131//136 130//136 138//136 139//136
f 136//137 135//137 144//137 145//137
f 137//138 136//138 145//138 146//138
f 138//139 137//139 146//139 147//139
f 139//140 138//140 147//140 148//140
f 132//141 140//141 141//141
f 133//142 132//142 141//142 142//142
f 134//143 133//143 142//143 143//143
f 135//144 134//144 143//144 144//144
f 142//145 141//145 149//145 150//145
f 143//146 142//146 150//146 151//146
f 144//147 143//147 151//147 152//147
f 145//148 144//148 152//148 153//148
f 146//149 145//149 153//149 154//149
f 147//150 146//150 154//150 155//150
f 148//151 147//151 155//151 156//151
f 141//152 140//152 149//152
f 154//153 153//153 161//153 162//153
f 155//154 154//154 162//154 163//154
f 156//155 155//155 163//155 164//155
f 149//156 140//156 157//156
f 150//157 149//157 157//157 158//157
f 151//158 150//158 158//158 159//158
f 152//159 151//159 159//159 160//159
f 153//160 152//160 160//160 161//160
f 159//161 158//161 166//161 167//161
f 160//162 159//162 167//162 168//162
f 161//163 160//163 168//163 169//163
f 162//164 161//164 169//164 170//164
f 163//165 162//165 170//165 171//165
f 164//166 163//166 171//166 172//166
f 157//167 140//167 165//167
f 158//168 157//168 165//168 166//168
f 171//169 170//169 178//169 179//169
f 172//170 171//170 179//170 180//170
f 165//171 140//171 173//171
f 166//172 165//172 173//172 174//172
f 167//173 166//173 174//173 175//173
f 168//174 167//174 175//174 176//174
f 169//175 168//175 176//175 177//175
f 170//176 169//176 177//176 178//176
f 175//177 174//177 182//177 183//177
f 176//178 175//178 183//178 184//178
f 177//179 176//179 184//179 185//179
f 178//180 177//180 185//180 186//180
f 179//181 178//181 186//181 187//181
f 180//182 179//182 187//182 188//182
f 173//183 140//183 181//183
f 174//184 173//184 181//184 182//184
f 187//185 186//185 194//185 195//185
f 188//186 187//186 195//186 196//186
f 181//187 140//187 189//187
f 182//188 181//188 189//188 190//188
f 183//189 182//189 190//189 191//189
f 184//190 183//190 191//190 192//190
f 185//191 184//191 192//191 193//191
f 186//192 185//192 193//192 194//192
f 192//193 191//193 199//193 200//193
f 193//194 192//194 200//194 201//194
f 194//195 193//195 201//195 202//195
f 195//196 194//196 202//196 203//196
f 196//197 195//197 203//197 204//197
f 189//198 140//198 197//198
f 190//199 189//199 197//199 198//199
f 191//200 190//200 198//200 199//200
f 204//201 203//201 211//201 212//201
f 197//202 140//202 205//202
f 198//203 197//203 205//203 206//203
f 199//204 198//204 206//204 207//204
f 200//205 199//205 207//205 208//205
f 201//206 200//206 208//206 209//206
f 202//207 201//207 209//207 210//207
f 203//208 202//208 210//208 211//208
f 208//209 207//209 215//209 216//209
f 209//210 208//210 216//210 217//210
f 210//211 209//211 217//211 218//211
f 211//212 210//212 218//212 219//212
f 212//213 211//213 219//213 220//213
f 205//214 140//214 213//214
f 206//215 205//215 213//215 214//215
f 207//216 206//216 214//216 215//216
f 220//217 219//217 225//217 3//217
f 213//218 140//218 221//218
f 11//219 19//219 27//219 35//219 43//219 51//219 59//219 67//219 75//219 83//219 91//219 99//219 107//219 115//219 123//219 131//219 139//219 148//219 156//219 164//219 172//219 180//219 188//219 196//219 204//219 212//219 220//219 3//219
f 214//220 213//220 221//220 222//220
f 215//221 214//221 222//221 223//221
f 216//222 215//222 223//222 1//222
f 217//223 216//223 1//223 224//223
f 218//224 217//224 224//224 2//224
f 219//225 218//225 2//225 225//225
